<?xml version="1.0" encoding="utf-8"?>
<!-- Generator: Adobe Illustrator 28.1.0, SVG Export Plug-In . SVG Version: 6.00 Build 0)  -->
<svg version="1.1" id="Layer_1" xmlns="http://www.w3.org/2000/svg" xmlns:xlink="http://www.w3.org/1999/xlink" x="0px" y="0px"
	 viewBox="0 0 790.215 635.661" enable-background="new 0 0 790.215 635.661" xml:space="preserve">
<linearGradient id="SVGID_1_" gradientUnits="userSpaceOnUse" x1="0" y1="317.8306" x2="790.2147" y2="317.8306">
	<stop  offset="0.22" style="stop-color:#48C0BC"/>
	<stop  offset="0.74" style="stop-color:#D03693"/>
</linearGradient>
<path fill="url(#SVGID_1_)" d="M788.037,0h-84.755c-1.203,0-2.178,0.975-2.178,2.178v186.1c0,1.162-1.424,1.74-2.22,0.893
	c-12.425-13.219-27.152-23.797-44.192-31.742c-18.077-8.412-38.986-12.624-62.749-12.624c-26.246,0-50.496,4.954-72.774,14.852
	c-22.278,9.909-41.341,23.392-57.18,40.471c-15.85,17.08-28.218,37.129-37.129,60.15c-8.911,23.02-13.367,47.897-13.367,74.63
	c0,24.76,3.957,48.523,11.882,71.288c7.913,22.777,19.922,42.826,36.016,60.149c16.082,17.335,36.015,31.189,59.778,41.585
	c23.763,10.396,51.239,15.594,82.427,15.594c30.191,0,57.052-4.943,80.571-14.852c23.508-9.897,43.314-23.391,59.407-40.471
	c16.082-17.08,28.219-37.13,36.387-60.15c8.168-23.021,12.253-47.642,12.253-73.887V2.178C790.215,0.975,789.24,0,788.037,0z
	 M674.742,414.736c-17.578,17.08-41.712,25.619-72.402,25.619c-18.321,0-33.916-2.716-46.783-8.169
	c-12.879-5.441-23.391-12.996-31.56-22.649s-14.109-20.909-17.822-33.788c-3.713-12.867-5.569-26.733-5.569-41.584
	c0-14.852,1.857-28.706,5.569-41.585c3.713-12.868,9.654-24.134,17.822-33.788c8.168-9.654,18.681-17.196,31.56-22.649
	c12.868-5.441,28.462-8.168,46.783-8.168c30.69,0,54.824,8.54,72.402,25.619c17.567,17.08,26.362,43.941,26.362,80.571
	C701.104,370.807,692.309,397.656,674.742,414.736z M671.709,589.043l-25.47-38.585c-0.833-1.261-2.243-2.02-3.755-2.02H490.042
	c-60.422,0-83.837-36.892-92.336-58.276c-2.795-8.44-5.133-16.857-6.969-25.248c-3.977-18.107-6.698-35.353-8.187-51.727
	c-1.489-16.374-2.232-31.375-2.232-45.028c0-13.641-0.256-25.176-0.744-34.607c-1-28.771-6.082-54.947-15.258-78.52
	c-9.187-23.56-21.839-43.539-37.957-59.913c-16.13-16.374-35.608-29.026-58.424-37.957c-22.828-8.931-48.377-13.397-76.659-13.397
	c-30.27,0-57.308,4.966-81.125,14.885c-23.816,9.931-43.911,23.445-60.285,40.563c-16.374,17.118-28.782,37.213-37.213,60.285
	C4.21,282.571,0,307.015,0,332.808c0,26.792,4.466,51.725,13.397,74.798s21.328,43.168,37.213,60.286
	c15.874,17.118,34.98,30.643,57.308,40.562c22.328,9.931,46.632,14.885,72.937,14.885c27.782,0,51.598-5.455,71.449-16.374
	c19.207-10.561,35.166-24.849,47.877-42.866c0.409-0.579,1.227-0.502,1.557,0.042c31.642,186.313,187.847,171.226,212.067,171.226
	h128.489c1.52,0,2.938-0.768,3.768-2.042l25.659-39.348C672.702,592.478,672.696,590.539,671.709,589.043z M263.84,414.305
	c-17.618,17.118-41.806,25.677-72.565,25.677c-18.363,0-33.992-2.722-46.889-8.187c-12.908-5.454-23.444-13.025-31.631-22.7
	c-8.187-9.675-14.141-20.956-17.862-33.864c-3.721-12.896-5.582-26.793-5.582-41.678c0-14.885,1.861-28.771,5.582-41.679
	c3.721-12.897,9.675-24.188,17.862-33.864s18.723-17.234,31.631-22.7c12.897-5.454,28.526-8.187,46.889-8.187
	c33.736,0,58.296,9.559,73.682,28.654c15.374,19.106,23.816,45.028,25.305,77.775C290.262,370.276,281.447,397.187,263.84,414.305z
	 M788.884,589.622c0.808,1.224,0.813,2.811,0.011,4.04l-25.956,39.804c-0.774,1.187-2.095,1.902-3.512,1.902h-42.605l27.151-41.635
	c0.881-1.352,0.877-3.098-0.012-4.444l-26.966-40.85h42.61c1.307,0,2.526,0.656,3.246,1.747L788.884,589.622z M730.856,592.914
	L704.37,633.53c-0.748,1.147-2.024,1.838-3.393,1.838h-41.764c-0.357,0-0.572-0.396-0.377-0.696l27.987-42.919
	c0.098-0.15,0.097-0.344-0.001-0.494l-27.807-42.125c-0.197-0.299,0.017-0.698,0.375-0.698h43.711c0.151,0,0.292,0.076,0.375,0.202
	l27.37,41.464C731.41,590.956,731.414,592.06,730.856,592.914z"/>
</svg>
